/* XPM */
static char *fac5a90c78624515a7fa1c43f22a01be[] = {
/* columns rows colors chars-per-pixel */
"64 64 6 1 ",
"  c None",
". c black",
"X c gray32",
"o c red",
"O c green",
"+ c yellow",
/* pixels */
"                                                                ",
"                                                                ",
"                                                                ",
"                                                                ",
"                                                                ",
"                                                                ",
"                                                                ",
"                                                                ",
"                                                                ",
"                      .........                                 ",
"                      ..........                                ",
"                              ...                               ",
"                               ..                               ",
"                               ..                               ",
"                               ..                               ",
"                               ..                               ",
"                               ..                               ",
"                               ..                               ",
"  ............................X..X............................  ",
"  XXXXXXXXXXXXXXXXXXXXXXXXXXX..XX..XXXXXXXXXXXXXXXXXXXXXXXXXXX  ",
"  ............................................................  ",
"  .X..XX....XX..XX..XX..XX..XX..XX..XX..XX..XX..XX..XX..XX..X.  ",
"  .X..XX....XX..XX..XX..XX..XX..XX..XX..XX..XX..XX..XX..XX..X.  ",
"  .X........................................................X.  ",
"  .X......ooo.......ooo............ooo........ooo...........X.  ",
"  .X......ooo.......ooo............ooo........ooo...........X.  ",
"  .X......ooo.......ooo............ooo........ooo...........X.  ",
"  .X........................................................X.  ",
"  .X........................................................X.  ",
"  .X......+++.......+++.......+++..+++........+++..+++..+++.X.  ",
"  .X......+++.......+++.......+++..+++........+++..+++..+++.X.  ",
"  .X......+++.......+++.......+++..+++........+++..+++..+++.X.  ",
"  .X........................................................X.  ",
"  .X........................................................X.  ",
"  .X......+++..+++..+++..+++..+++..+++........+++..+++..+++.X.  ",
"  .X......+++..+++..+++..+++..+++..+++........+++..+++..+++.X.  ",
"  .X......+++..+++..+++..+++..+++..+++........+++..+++..+++.X.  ",
"  .X........................................................X.  ",
"  .X........................................................X.  ",
"  .X.OOO..OOO..OOO..OOOOOOOOOOOOO..OOO...OOO..OOO..OOO..OOO.X.  ",
"  .X.OOO..OOO..OOO..OOOOOOOOOOOOO..OOO...OOO..OOO..OOO..OOO.X.  ",
"  .X.OOO..OOO..OOO..OOOOOOOOOOOOO..OOO...OOO..OOO..OOO..OOO.X.  ",
"  .X........................................................X.  ",
"  ............................................................  ",
"  ............................................................  ",
"   .XXXXXXXXXXXXXXXXXXXXXXXXXXXXXXXXXXXXXXXXXXXXXXXXXXXXXXXXX.  ",
"    .XXXXXXXXXXXXXXXXXXXXXXXXXXXXXXXXXXXXXXXXXXXXXXXXXXXXXXX.   ",
"     .......................................................    ",
"                                                                ",
"                                                                ",
"                                                                ",
"                                                                ",
"                                                                ",
"                                                                ",
"                                                                ",
"                                                                ",
"                                                                ",
"                                                                ",
"                                                                ",
"                                                                ",
"                                                                ",
"                                                                ",
"                                                                ",
"                                                                "
};
